<svg width="124" height="18" viewBox="0 0 144 23" fill="none" xmlns="http://www.w3.org/2000/svg">
<path d="M0.841956 1.63636L8.26951 14.8011V22H12.5451V14.8011L19.9726 1.63636H15.1502L10.5067 10.4062H10.3079L5.6644 1.63636H0.841956ZM26.4773 22.2983C31.1109 22.2983 33.9944 19.1264 33.9944 14.4233C33.9944 9.69034 31.1109 6.52841 26.4773 6.52841C21.8438 6.52841 18.9603 9.69034 18.9603 14.4233C18.9603 19.1264 21.8438 22.2983 26.4773 22.2983ZM26.4972 19.017C24.3594 19.017 23.2657 17.0582 23.2657 14.3935C23.2657 11.7287 24.3594 9.75994 26.4972 9.75994C28.5952 9.75994 29.689 11.7287 29.689 14.3935C29.689 17.0582 28.5952 19.017 26.4972 19.017ZM47.0467 15.4972C47.0566 17.5455 45.6546 18.6193 44.1333 18.6193C42.5325 18.6193 41.4984 17.4957 41.4884 15.696V6.72727H37.2527V16.4517C37.2626 20.0213 39.3507 22.1989 42.4231 22.1989C44.72 22.1989 46.3706 21.0156 47.0566 19.2259H47.2157V22H51.2825V6.72727H47.0467V15.4972ZM73.9672 11.8182C73.9672 5.15625 69.8309 1.35795 64.4317 1.35795C59.0027 1.35795 54.8962 5.15625 54.8962 11.8182C54.8962 18.4503 59.0027 22.2784 64.4317 22.2784C69.8309 22.2784 73.9672 18.4801 73.9672 11.8182ZM69.6022 11.8182C69.6022 16.1335 67.5539 18.4702 64.4317 18.4702C61.2996 18.4702 59.2613 16.1335 59.2613 11.8182C59.2613 7.50284 61.2996 5.16619 64.4317 5.16619C67.5539 5.16619 69.6022 7.50284 69.6022 11.8182ZM81.8168 13.1705C81.8267 11.2017 83 10.0483 84.7102 10.0483C86.4105 10.0483 87.4347 11.1619 87.4247 13.0312V22H91.6605V12.2756C91.6605 8.71591 89.5724 6.52841 86.3906 6.52841C84.1236 6.52841 82.483 7.64204 81.7969 9.42188H81.6179V6.72727H77.581V22H81.8168V13.1705ZM99.7387 1.63636H95.5029V22H99.7387V1.63636ZM103.636 22H107.872V6.72727H103.636V22ZM105.764 4.75852C107.026 4.75852 108.061 3.79403 108.061 2.61079C108.061 1.4375 107.026 0.47301 105.764 0.47301C104.511 0.47301 103.477 1.4375 103.477 2.61079C103.477 3.79403 104.511 4.75852 105.764 4.75852ZM116.005 13.1705C116.014 11.2017 117.188 10.0483 118.898 10.0483C120.598 10.0483 121.622 11.1619 121.612 13.0312V22H125.848V12.2756C125.848 8.71591 123.76 6.52841 120.578 6.52841C118.311 6.52841 116.671 7.64204 115.985 9.42188H115.806V6.72727H111.769V22H116.005V13.1705ZM136.651 22.2983C140.429 22.2983 142.975 20.4588 143.571 17.625L139.654 17.3665C139.226 18.5298 138.132 19.1364 136.721 19.1364C134.603 19.1364 133.26 17.7344 133.26 15.4574V15.4474H143.661V14.2841C143.661 9.09375 140.519 6.52841 136.482 6.52841C131.988 6.52841 129.074 9.72017 129.074 14.4332C129.074 19.2756 131.948 22.2983 136.651 22.2983ZM133.26 12.8224C133.35 11.0824 134.672 9.69034 136.552 9.69034C138.391 9.69034 139.664 11.0028 139.674 12.8224H133.26Z" fill="#2AD234"/>
</svg>
